<svg xmlns="http://www.w3.org/2000/svg" viewBox="0 0 50 50">
    <path fill="#A0A1A2" d="M0 44.8c0 1 .8 1.9 1.8 1.9h46.3c1 0 1.9-.8 1.9-1.9V11.7H0v33.1z"></path>
    <path fill="#7A7A7A" d="M48.1 4H1.8C.8 4 0 4.9 0 5.9v5.7h50V5.9c0-1-.8-1.9-1.9-1.9"></path>
    <path opacity=".8" fill="#FFF" d="M38 21.2v-2.4H22.8l-3.6-3.6H9.7v26.3c0 .8.6 1.4 1.4 1.4h27.2c.8 0 1.4-.6 1.4-1.4V21.2H38z"></path>
    <path fill="#FF8C00" d="M12.5 21.2v20.3c0 .8-.6 1.4-1.4 1.4-.8 0-1.4-.6-1.4-1.4V15.2h9.6l3.6 3.6H38v2.4H12.5z"></path>
    <path opacity=".2" fill="#FFF" d="M2 4C.9 4 0 4.9 0 6v38.6c0 1.1.9 2 2 2h2.2L43.6 4H2z"></path>
</svg>